<?xml version="1.0" encoding="UTF-8"?>
<svg id="logo-horizontal-light" xmlns="http://www.w3.org/2000/svg" viewBox="0 0 1024 249.19">
  <defs>
    <style>
      .cls-1, .cls-2 {
        fill: #654fcc;
      }

      .cls-3 {
        fill: #f9f8ff;
      }

      .cls-4 {
        fill: #1a1a36;
      }

      .cls-2 {
        fill-rule: evenodd;
      }
    </style>
  </defs>
  <path class="cls-4" d="M289.96,135.36l-.24,5.53h-72.8c.64,8.33,3.36,14.98,8.17,19.94,4.81,4.8,10.97,7.21,18.5,7.21,5.77,0,10.57-1.36,14.42-4.08,3.84-2.88,7.53-7.05,11.05-12.49,9.45,12.98,14.17,19.55,14.17,19.7-4,4.33-8.41,7.93-13.22,10.81-3.84,2.4-8.05,4.17-12.61,5.29-4.57,1.12-9.49,1.68-14.78,1.68-15.06,0-27.24-4.81-36.52-14.42-9.13-9.93-13.7-22.98-13.7-39.17s4.48-28.99,13.46-38.93c8.97-9.93,20.82-14.9,35.56-14.9s26.75,4.81,35.56,14.42c8.65,9.45,12.98,22.59,12.98,39.41ZM218.74,122.09h47.09c-3.36-12.5-11.29-18.74-23.79-18.74-2.88,0-5.57.4-8.05,1.2-2.48.8-4.73,2.04-6.73,3.72-2.01,1.68-3.77,3.69-5.29,6.01-1.53,2.32-2.61,4.93-3.24,7.81Z"/>
  <path class="cls-4" d="M384.28,95.71c5.6,6.25,8.41,16.58,8.41,31v62.23h-23.55v-56.71c0-10.09-1.37-17.06-4.09-20.9-2.73-3.85-7.69-5.77-14.9-5.77-7.69,0-13.22,2.56-16.58,7.69-3.21,5.13-4.81,14.02-4.81,26.67v49.02h-23.55v-101.64h23.55v9.37c8.17-8.17,17.46-12.25,27.87-12.25,11.69,0,20.91,3.77,27.63,11.29Z"/>
  <path class="cls-4" d="M576.24,137.52l12.01,26.19-12.25,25.23-52.38-108.61h26.19l26.43,57.19ZM602.43,80.34h26.43l-27.63,56.47-12.25-27.15,13.46-29.31Z"/>
  <path class="cls-4" d="M716.24,84.43l23.55,18.98v82.66h-23.55v-10.57c-9.77,8.97-20.18,13.46-31.24,13.46-14.1,0-25.71-5.05-34.84-15.14-9.13-10.41-13.7-23.39-13.7-38.93s4.57-27.91,13.7-38.08c9.13-10.17,20.5-15.26,34.12-15.26,11.85,0,22.5,4.89,31.96,14.66v-11.77ZM709.51,159.16c5.44-6.25,8.17-14.13,8.17-23.67s-2.73-17.42-8.17-23.67c-5.28-5.92-12.17-8.89-20.66-8.89s-14.98,3.05-20.42,9.13c-5.29,6.09-7.93,13.7-7.93,22.83,0,9.77,2.56,17.7,7.69,23.79,5.44,6.25,12.25,9.37,20.42,9.37,8.65,0,15.62-2.96,20.9-8.89Z"/>
  <path class="cls-4" d="M885.24,83.73c-3.24,0-5.99-1.16-8.26-3.49-2.27-2.32-3.4-5.14-3.4-8.44,0-3.06,1.13-5.75,3.4-8.08,2.26-2.32,4.98-3.49,8.17-3.49s6.12,1.16,8.44,3.49c2.2,2.2,3.3,4.93,3.3,8.17s-1.1,6.03-3.3,8.35c-2.32,2.33-5.11,3.49-8.35,3.49ZM873.59,188.94v-95.41l23.31,17.82v77.59h-23.31Z"/>
  <path class="cls-4" d="M945.5,94.75h18.26v20.26h-18.26v73.93h-23.31v-73.93h-10.09v-20.26h10.09v-34.51l23.31,17.59v16.92Z"/>
  <g>
    <path class="cls-1" d="M163.04,168.69l14.1,20.16h-31.44l-32.87-47.02-12.62-17.29h31.89c5.25,0,9.79-1.89,13.61-5.7,3.77-3.77,5.7-8.31,5.7-13.56s-1.93-9.83-5.7-13.61c-3.82-3.82-8.35-5.7-13.61-5.7H60.24l12.21-25.73h59.64c11.99,0,22.32,4.13,30.94,12.44.27.22.58.54.85.81,8.8,8.8,13.25,19.4,13.25,31.79,0,9.52-2.74,18.14-8.22,25.78-1.8,2.51-3.77,4.81-5.88,6.83-4.31,4.18-9.3,7.28-14.95,9.43l14.95,21.38Z"/>
    <polygon class="cls-1" points="135.91 188.85 104.48 188.85 87.1 163.57 80.36 153.78 78.39 150.95 60.24 124.55 91.18 124.55 102.05 140.17 103.22 141.83 112.83 155.67 119.48 165.19 119.57 165.59 119.57 165.37 135.91 188.85"/>
  </g>
  <g>
    <polyline class="cls-2" points="468.23 124.03 453.12 116.35 453.12 68.63 468.23 76.35"/>
    <g>
      <path class="cls-2" d="M478.74,101.68c.37.28.76.53,1.19.73,13.48,8.09,21.02,17.2,21.02,32.77,0,6.24-1.52,12.11-4.16,17.32l11.46,10.64c4.9-8.01,7.78-17.36,7.78-27.39,0-19.28-7.09-33.77-22.27-42.8l-15.01,8.73Z"/>
      <path class="cls-2" d="M487.64,164.24c-6.87,5.98-15.84,9.62-25.68,9.62-21.55,0-39.02-17.27-39.02-38.68,0-14.2,7.7-26.65,19.23-33.34.19-.09.33-.21.51-.31l-13.62-7.92c-12.86,9.7-21.14,24.97-21.14,42.14,0,29.4,24.16,53.19,54.05,53.19,14.3,0,27.26-5.49,36.93-14.41l-11.25-10.29Z"/>
    </g>
  </g>
  <path class="cls-1" d="M854.22,135.67c-2.78-4.29-6.08-7.59-9.91-9.91-3.83-2.32-7.3-3.83-10.43-4.52v-1.39c2.78-.81,5.65-2.34,8.6-4.6,2.95-2.26,5.48-5.27,7.56-9.04,2.08-3.77,3.13-8.49,3.13-14.17s-1.51-11.09-4.52-15.9c-3.01-4.81-7.38-8.66-13.12-11.56-5.73-2.9-12.77-4.35-21.12-4.35h-35.37l11.81,22.42h19.05c6.02,0,10.43,1.48,13.21,4.43,2.78,2.95,4.17,6.46,4.17,10.52s-1.39,7.71-4.17,10.6c-2.78,2.9-7.19,4.35-13.21,4.35h-28.16l-12.83-25.55-.99-1.88-12.94-24.88v128.62h60.83c10.08,0,18.27-1.8,24.59-5.39,6.31-3.59,10.89-8.17,13.73-13.73,2.84-5.56,4.26-11.35,4.26-17.38,0-6.83-1.39-12.4-4.17-16.68ZM826.85,161.48c-3.07,3.3-8.03,4.95-14.86,4.95h-30.24v-33.37h30.24c6.83,0,11.79,1.63,14.86,4.87,3.07,3.24,4.61,7.13,4.61,11.65s-1.54,8.6-4.61,11.91Z"/>
  <path class="cls-3" d="M847.92,93.53c-.75-7.78-5.28-14.71-11.03-19.7-1.82-1.71-3.65-3.23-6.19-4.19v-.3c.67-.13,1.43-.3,2.14-.2,7.97.83,12.38,9.52,14.52,16.35.7,2.63,1.09,5.36.86,8.05,0,0-.3,0-.3,0h0Z"/>
</svg>